<svg fill="#000000" xmlns="http://www.w3.org/2000/svg" viewBox="0 0 100 100" width="100px" height="100px"><path fill="white" stroke="#000000" stroke-linejoin="round" stroke-miterlimit="10" stroke-width="2" d="M84.467,44H50v13h20.856	C67.931,65.717,59.702,72,50,72c-12.15,0-22-9.85-22-22s9.85-22,22-22c4.799,0,9.235,1.541,12.851,4.149l9.269-9.269	C66.091,17.956,58.391,15,50,15c-19.33,0-35,15.67-35,35s15.67,35,35,35s35-15.67,35-35C85,47.952,84.806,45.951,84.467,44z"/><line x1="67.5" x2="71.5" y1="73.9" y2="77.5" fill="none" stroke="#000000" stroke-linecap="round" stroke-linejoin="round" stroke-miterlimit="10"/><line x1="63.722" x2="65.5" y1="70.5" y2="72.1" fill="none" stroke="#000000" stroke-linecap="round" stroke-linejoin="round" stroke-miterlimit="10"/><line x1="27.929" x2="29.5" y1="59.5" y2="58.5" fill="none" stroke="#000000" stroke-linecap="round" stroke-linejoin="round" stroke-miterlimit="10"/><line x1="23.5" x2="25.5" y1="62.318" y2="61.045" fill="none" stroke="#000000" stroke-linecap="round" stroke-linejoin="round" stroke-miterlimit="10"/><line x1="18.5" x2="21.5" y1="65.5" y2="63.591" fill="none" stroke="#000000" stroke-linecap="round" stroke-linejoin="round" stroke-miterlimit="10"/><line x1="19.5" x2="24.5" y1="34.5" y2="37.682" fill="none" stroke="#000000" stroke-linecap="round" stroke-linejoin="round" stroke-miterlimit="10"/><line x1="26.5" x2="27.5" y1="38.955" y2="39.591" fill="none" stroke="#000000" stroke-linecap="round" stroke-linejoin="round" stroke-miterlimit="10"/></svg>